<svg xmlns="http://www.w3.org/2000/svg" fill="none" viewBox="0 0 204 90" height="90" width="204">
<path fill="white" d="M64.6006 53.1128H51.9814V12.8501H38.46V53.1128H26.1406V12.8501H12.6201V53.1128H0V0.22998H64.6006V53.1128ZM133.709 12.8501H81.7275V20.3618H133.709V32.981H81.7275V40.4927H133.709V53.1128H69.1084V0.22998H133.709V12.8501ZM202.816 12.8501H150.836V20.3618H202.816V53.1128H138.216V40.4927H190.197V32.981H138.216V0.22998H202.816V12.8501Z"></path>
<path fill="white" d="M94.5347 79.665C94.949 80.7789 95.4408 82.2783 95.4478 82.2998H95.4996C95.5076 82.2741 95.9727 80.7772 96.3863 79.665L99.4634 71.2637H101.706L95.9429 85.8486C94.8477 88.6402 93.8045 89.2139 92.1617 89.2139C91.3534 89.2139 90.832 89.1616 90.2584 88.9268V87.0488H90.3629C90.6497 87.2053 91.0928 87.3359 91.7964 87.3359C92.6829 87.3359 93.2828 86.9965 93.8043 85.6924L94.3257 84.3613L89.0591 71.2637H91.3531L94.5347 79.665ZM156.268 70.9502C159.684 70.9502 162.057 73.5595 162.057 78.0469C162.057 82.3779 159.841 85.1436 156.19 85.1436C154.365 85.1436 153.061 84.5958 151.94 83.1611H151.887V89.083H149.775V71.2637H151.887V73.168H151.94C152.957 71.7855 154.313 70.9502 156.268 70.9502ZM130.59 84.752H128.478V83.1084H128.426C127.409 84.4129 126.157 85.1436 124.253 85.1436C120.577 85.1435 118.282 82.3777 118.282 78.0469C118.282 73.5594 120.864 70.9502 124.202 70.9502C126.105 70.9503 127.566 71.8896 128.426 73.168H128.478V66.0977H130.59V84.752ZM183.219 70.9248C186.4 70.9249 188.513 72.7513 188.982 75.6211H186.843C186.53 73.7949 185.253 72.673 183.219 72.6729C180.351 72.6729 178.864 75.0472 178.864 78.0215C178.864 80.9957 180.351 83.3438 183.219 83.3438C185.41 83.3436 186.714 82.091 186.896 80.0039H188.982C188.695 83.239 186.583 85.118 183.219 85.1182C179.204 85.1182 176.7 81.935 176.7 78.0215C176.7 74.108 179.204 70.9248 183.219 70.9248ZM196.611 70.9248C200.653 70.9249 202.817 74.0555 202.817 78.5166H192.386C192.543 81.256 194.029 83.3436 196.741 83.3438C198.697 83.3438 200.001 82.4044 200.47 80.5781H202.53C201.904 83.4741 199.792 85.1182 196.741 85.1182C192.621 85.118 190.222 81.9349 190.222 78.0215C190.222 74.108 192.778 70.9248 196.611 70.9248ZM139.736 65.7324C144.404 65.7324 146.334 68.1069 146.803 71.5508H144.586C144.247 68.8897 142.527 67.5587 139.789 67.5586C137.259 67.5586 135.591 68.6282 135.59 70.5586C135.59 72.6719 137.676 73.2988 140.466 73.8467C144.091 74.5772 147.403 75.4639 147.403 79.6641C147.403 83.1602 144.56 85.1172 140.544 85.1172C135.303 85.1171 132.8 82.1953 132.591 78.4385H134.886C135.199 81.5952 137.129 83.2393 140.649 83.2393C143.23 83.2392 145.081 82.0649 145.082 79.7432C145.082 77.1863 142.839 76.586 139.502 75.8555C136.216 75.1249 133.4 74.1853 133.4 70.6631C133.4 67.5847 135.955 65.7325 139.736 65.7324ZM169.405 71.0029C172.273 71.003 174.385 72.0726 174.385 75.2812V81.7002C174.385 82.7956 174.646 83.3954 175.819 83.1348H175.898V84.6738C175.637 84.7782 175.298 84.8828 174.751 84.8828C173.369 84.8828 172.638 84.2568 172.429 82.874H172.403C171.595 83.9175 170.213 85.0136 167.919 85.0137C165.363 85.0137 163.355 83.8127 163.355 81.2559C163.355 78.0733 165.859 77.4212 169.222 76.8994C171.126 76.6125 172.456 76.4296 172.456 74.9688C172.456 73.4555 171.36 72.5947 169.43 72.5947C167.24 72.5948 166.145 73.5336 166.067 75.5684H164.033C164.111 72.9595 165.832 71.0029 169.405 71.0029ZM78.1568 81.5947H78.2086L84.2066 66.0977H87.2574V84.752H85.0142V69.4111H84.9625C84.9542 69.4356 84.4646 70.8792 84.1285 71.7588L79.0172 84.752H77.2173L72.107 71.7588C71.7444 70.826 71.2784 69.4302 71.272 69.4111H71.2203V84.752H69.108V66.0977H72.107L78.1568 81.5947ZM116.68 68.1582H105.859V74.0547H115.69V76.0381H105.859V82.5859H116.994V84.752H103.512V66.0977H116.68V68.1582ZM172.482 77.4736C171.778 77.9171 170.552 78.2561 169.405 78.4648C167.293 78.8562 165.597 79.2213 165.597 81.2041C165.597 83.0042 167.005 83.3955 168.387 83.3955C171.203 83.3955 172.482 81.3349 172.482 79.7695V77.4736ZM124.306 72.75C121.751 72.75 120.447 75.0468 120.447 78.0732C120.447 81.1254 121.75 83.369 124.332 83.3691C127.33 83.3691 128.609 81.1256 128.609 78.0732C128.609 74.9426 127.096 72.7502 124.306 72.75ZM156.059 72.751C153.113 72.7512 151.757 75.1513 151.757 78.0732C151.757 80.9953 152.931 83.3691 156.034 83.3691C158.615 83.369 159.893 81.1257 159.893 78.0732C159.893 75.0468 158.615 72.751 156.059 72.751ZM196.611 72.5947C194.108 72.5947 192.751 74.4733 192.438 76.9258H200.548C200.418 74.2385 199.036 72.5948 196.611 72.5947Z"></path>
</svg>
